# xmcd
# Track frame offsets:
# 150
# 13235
# 28112
# 38580
# 53975
# 66622
# 82197
# 96035
# 108472
# 119867
# 134132
# 158197
#
# Disc length: 2291 seconds
# Revision: 1
# Processed by: cddbd v1.5.2PL0 Copyright (c) Steve Scherf et al.
# Submitted via: VisiTrax 2.11.2.271 - For more info visit www.synapsa.com
#
DISCID=b508f10c
DTITLE=Slim Dusty - Lights On The Hill
DYEAR=1975
DGENRE=Australian Country
TTITLE0=Pushin' Time
TTITLE1=The Home Run
TTITLE2=Worst In The World
TTITLE3=Foggy Mirrors
TTITLE4=Ridin' This Road
TTITLE5=Interstater
TTITLE6=Lights On The Hill
TTITLE7=Bent-Axle Bob
TTITLE8=There Lies A Workhorse
TTITLE9=Truckin's In My Blood
TTITLE10=A Truckie's Last Will And Testament
TTITLE11=Hear 'Em Go
EXTD=1975 EMI Music Australia
EXTT0=
EXTT1=
EXTT2=
EXTT3=
EXTT4=
EXTT5=
EXTT6=
EXTT7=
EXTT8=
EXTT9=
EXTT10=
EXTT11=
PLAYORDER=
